<svg xmlns="http://www.w3.org/2000/svg" width="50" height="41" viewBox="0 0 220.5 181.5" xmlns:v="https://vecta.io/nano"><path d="M220.25 181.5H0V.25h1.37 218.92v179.63l-.04 1.62zm-4.05-4V4.31H4.13v1.47q0 85.05 0 170.12c0 1.24.28 1.59 1.58 1.59q104.55-.06 209.11 0z"/><path d="M220.25 181.5v-1.62V.21H1.37L0 .25C0 .17.08 0 .13 0h1H220.5q0 90.2 0 180.38a5.6 5.6 0 0 1-.25 1.12zm-4.05-4.04h-1.41q-104.55 0-209.11 0c-1.3 0-1.58-.35-1.58-1.59q0-85.07 0-170.12V4.31h212.1zM58.13 130.41c3.46-1.41 5-2.43 6.25-4.9a23.39 23.39 0 0 0 2.2-6.56c.87-5.67-.28-10.86-4.6-15A21.38 21.38 0 0 0 47 98c-10.17-.12-20.33 0-30.5 0-.28 0-.56.06-.85.08v70.17h1.6 28.88a42.7 42.7 0 0 0 6.59-.47c6.24-1 11.58-3.63 15.14-9.1 2.75-4.22 3.22-8.91 2.63-13.8-.7-5.88-5.15-13.11-12.36-14.47zM208 49.24c-.26-2.82-.38-5.66-.8-8.45-1.14-7.45-3.92-14.21-9.3-19.63-8-8-17.8-10.06-28.54-8.24-11.62 2-19.2 9-23.35 19.88-3.09 8-3.36 16.4-2.12 24.85a35.07 35.07 0 0 0 8 18.29c6 7 13.82 10.18 22.93 10.33 12.77.22 22.59-4.86 28.64-16.36 3.37-6.45 4.38-13.46 4.54-20.67zm-138.36.09c.45 3.62.69 7.29 1.39 10.86a32.74 32.74 0 0 0 9.68 18.08c5.8 5.45 12.83 7.77 20.69 8 14.52.49 26.13-7.4 30.67-21.19a50 50 0 0 0 .3-30.6 30.52 30.52 0 0 0-13.13-17.63 31.24 31.24 0 0 0-18.38-4.5c-11.72.48-20.57 5.76-26.24 16.08-3.54 6.49-4.72 13.57-4.96 20.9zM182 132.83v.26q8.63 15.69 17.27 31.38a1.22 1.22 0 0 0 .84.54c1.49.06 3 0 4.68 0l-16.62-29.83 1.24-.53c5.1-2.29 8.54-6 9.81-11.52a37.29 37.29 0 0 0 .82-6c.3-5.27-.76-10.2-4.21-14.38-4.6-5.58-10.76-7.82-17.76-7.91-9.7-.12-19.41 0-29.12 0h-1.27V165H152V99.26c.36 0 .57-.05.78-.05h25.37a21.38 21.38 0 0 1 4.57.55c7.21 1.58 12.11 6.62 12.82 13.8.87 8.67-2 13.58-8.61 16.95-1.58.85-3.26 1.56-4.93 2.32zM140 165c-.11-.42-.17-.7-.26-1Q128.39 129.9 117 95.72c-.27-.81-.69-1-1.44-.94H97.07a1.59 1.59 0 0 0-1.81 1.34q-11.2 33.75-22.46 67.5c-.14.42-.24.86-.36 1.3 4.3.6 4.3.6 5.62-3.27.06-.2.13-.39.2-.59q10.15-30.33 20.28-60.67a1.46 1.46 0 0 1 1.65-1.21 313.13 313.13 0 0 0 11.87 0 1.65 1.65 0 0 1 1.92 1.37q6.72 20.45 13.52 40.84 3.75 11.31 7.5 22.61c.14.39.52 1 .83 1 1.37.1 2.74 0 4.17 0zM19.86 18.63h42.5v-4.29H15.6v70.08h4.26zm38.57 30v-4.38H32.22V28h30.15v-4.38H27.83v25zm101.13 80.82h16.13a12.65 12.65 0 0 0 6.63-2c4.51-2.83 6.55-8.67 5.08-14.57a11.63 11.63 0 0 0-11.13-8.63c-5.41-.21-10.82-.12-16.24-.15a2.17 2.17 0 0 0-.47.12zm-40.08 9.58l-10.79-32.81h-4.11a1.33 1.33 0 0 0-1.57 1.1l-10 30.43c-.14.41-.23.83-.35 1.3zm70.62 26l-.3-.76q-6.86-14.91-13.69-29.82c-.31-.69-.74-.76-1.36-.76h-9-6.27V165h4.33v-27h7.65a1.86 1.86 0 0 1 2 1.31q5.61 12.39 11.35 24.72c.19.4.67.92 1.06 1 1.35.08 2.69-.03 4.23-.03zm-72.17-16.5l.56 1.58 4.55 13.86c.14.4.52 1 .83 1 1.3.11 2.62 0 3.93 0a1.55 1.55 0 0 0 0-.42l-6.34-19.71c-.25-.78-.78-.7-1.36-.7H92.35a1.39 1.39 0 0 0-1.59 1.12l-4.79 14.31-1.81 5.43h4.53l.57-1.56 4.66-13.83a1.31 1.31 0 0 1 1.48-1.08h11.13zM58.48 53.39H27.83v31.06h4.29V57.7h26.36z" fill="#fff"/><path d="M58.13 130.41c7.21 1.36 11.66 8.62 12.36 14.41.59 4.89.12 9.58-2.63 13.8-3.56 5.47-8.9 8.11-15.14 9.1a42.7 42.7 0 0 1-6.59.47H17.25h-1.6V98c.29 0 .57-.08.85-.08L47 98a21.38 21.38 0 0 1 15 5.9c4.32 4.15 5.47 9.34 4.6 15a23.39 23.39 0 0 1-2.2 6.56c-1.22 2.54-2.81 3.54-6.27 4.95zm-6.62-.13l1.2-.32a11.52 11.52 0 0 0 7.92-6.33 20.1 20.1 0 0 0 1.52-4.85c1.28-6.74-1.47-11.86-7.73-14.66a23 23 0 0 0-9.49-1.81H21.32h-1.28v61.44h1.56 25.49a31.61 31.61 0 0 0 5.82-.56c5.07-1 9.34-3.38 11.83-8.12C69.51 146 63 133.33 52.8 131.74c-.8-.13-1.36-.36-1.29-1.46zM208 49.24c-.18 7.21-1.19 14.22-4.59 20.67-6.05 11.5-15.87 16.58-28.64 16.36-9.11-.15-16.91-3.33-22.93-10.33a35.07 35.07 0 0 1-8-18.29c-1.24-8.45-1-16.81 2.12-24.85 4.15-10.83 11.73-17.91 23.35-19.88 10.74-1.82 20.58.24 28.54 8.24 5.38 5.42 8.16 12.18 9.3 19.63.49 2.79.61 5.63.85 8.45zm-60.42 0c.14 2.08.23 4.16.44 6.22a34.82 34.82 0 0 0 .71 4.06c2.79 12.41 11.37 21.26 23.9 22.38 12.37 1.1 22.56-4.21 27.61-15.85 3.82-8.77 4.11-17.92 2.09-27.17a29 29 0 0 0-8.78-15.64c-5.27-4.8-11.59-6.66-18.61-6.49-9.47.23-16.93 4.16-22.05 12.19-3.89 6.17-5.25 13.06-5.29 20.27zm-77.92.09c.24-7.35 1.42-14.41 5-20.87 5.67-10.32 14.52-15.6 26.24-16.08a31.24 31.24 0 0 1 18.38 4.5 30.52 30.52 0 0 1 13.13 17.63 50 50 0 0 1-.3 30.6c-4.54 13.79-16.15 21.68-30.67 21.19-7.86-.26-14.89-2.58-20.69-8a32.74 32.74 0 0 1-9.68-18.08c-.72-3.6-.96-7.22-1.41-10.89zm4.61.92c.1 1.18.24 3.46.5 5.73a34.77 34.77 0 0 0 .75 4.02c2.92 12 11.33 20.74 23.84 21.84S122 77.52 127 65.88c3.7-8.63 4-17.62 2.08-26.7a29.07 29.07 0 0 0-8.35-15.47c-5.39-5.17-12-7.17-19.3-7-8.7.25-15.79 3.67-20.93 10.79-4.67 6.5-6.12 13.88-6.23 22.75zM182 132.83l5-2.29c6.66-3.37 9.48-8.28 8.61-16.95-.71-7.18-5.61-12.22-12.82-13.8a21.38 21.38 0 0 0-4.57-.55c-8.46-.06-16.92 0-25.37 0-.21 0-.42 0-.78.05V165h-4.32V94.79H149h29.12c7 .09 13.16 2.33 17.76 7.91 3.45 4.18 4.51 9.11 4.21 14.38a37.29 37.29 0 0 1-.82 6c-1.27 5.5-4.71 9.23-9.81 11.52l-1.24.53L204.83 165h-4.68a1.22 1.22 0 0 1-.84-.54q-8.66-15.66-17.31-31.37v-.26zM140 165h-4.18c-.31 0-.69-.61-.83-1q-3.78-11.3-7.52-22.6-6.75-20.4-13.47-40.85a1.65 1.65 0 0 0-1.92-1.37 313.13 313.13 0 0 1-11.87 0 1.46 1.46 0 0 0-1.65 1.21q-10.11 30.35-20.28 60.67l-.2.59c-1.32 3.87-1.32 3.87-5.62 3.27l.36-1.3q11.23-33.76 22.46-67.52a1.59 1.59 0 0 1 1.81-1.34h18.49c.75 0 1.17.13 1.44.94q11.36 34.19 22.75 68.35a10.27 10.27 0 0 1 .23.95zM19.86 18.63v65.79H15.6V14.34h46.76v4.29zm38.57 30.03h-30.6v-25h34.54V28H32.22v16.25h26.21zm101.13 80.82v-25.22a2.17 2.17 0 0 1 .47-.12c5.42 0 10.83-.06 16.24.15a11.63 11.63 0 0 1 11.13 8.63c1.47 5.9-.57 11.74-5.08 14.57a12.65 12.65 0 0 1-6.63 2c-5.33.05-10.69-.01-16.13-.01zM164 125a5 5 0 0 0 .67.09c3.78 0 7.58.08 11.36-.15 4.45-.26 7.28-3.58 7.46-8.32a7.41 7.41 0 0 0-7-7.86c-3.84-.35-7.73-.19-11.6-.24a8.77 8.77 0 0 0-.93.08zm-44.52 14.06h-26.8l.35-1.3 10-30.43a1.33 1.33 0 0 1 1.57-1.1c1.33.07 2.66 0 4.11 0l10.77 32.83zm-6.22-4.37l-7.22-23.49-7.14 23.55h13.81a4 4 0 0 0 .55-.06zM190.1 165h-4.19c-.39 0-.87-.55-1.06-1q-5.72-12.34-11.35-24.72a1.86 1.86 0 0 0-2-1.31h-7.65V165h-4.33v-31.29h6.27 9c.62 0 1.05.07 1.36.76q6.81 14.92 13.69 29.82c.04.17.16.36.26.71zm-72.17-16.46h-11.4H95.4a1.31 1.31 0 0 0-1.48 1.08l-4.66 13.83-.57 1.56h-4.53l1.8-5.37 4.79-14.31a1.39 1.39 0 0 1 1.59-1.12h27.75c.58 0 1.11-.08 1.36.7l6.34 19.71a1.55 1.55 0 0 1 0 .42h-3.93c-.31 0-.69-.61-.83-1l-4.55-13.86c-.16-.58-.35-1.08-.55-1.64zM58.48 53.39v4.31H32.12v26.75h-4.29V53.39z"/><path d="M51.51 130.28c-.07 1.1.48 1.33 1.29 1.46C63 133.33 69.51 146 64.74 155.09c-2.49 4.74-6.76 7.11-11.83 8.12a31.61 31.61 0 0 1-5.82.56H21.6 20v-61.42h1.28 23.61a23 23 0 0 1 9.49 1.81c6.26 2.8 9 7.92 7.73 14.66a20.1 20.1 0 0 1-1.52 4.85 11.52 11.52 0 0 1-7.88 6.33zM27.69 159h4.25c5.12-.06 10.25.06 15.35-.26a11.57 11.57 0 0 0 11.09-10c1-5.91-1.5-10.93-6.88-13.28a14.81 14.81 0 0 0-5.27-1.46c-6-.19-12.07-.12-18.1-.14a1.43 1.43 0 0 0-.44.15zm0-52v22.88a2.08 2.08 0 0 0 .43.1h15.87c6.53-.2 10.4-4.08 10.86-10.53s-4-12-10.53-12.36c-5.47-.37-10.97-.09-16.62-.09zM147.6 49.21c0-7.22 1.36-14.1 5.29-20.27 5.12-8 12.58-12 22.05-12.19 7-.17 13.34 1.69 18.61 6.49a29 29 0 0 1 8.78 15.64c2 9.25 1.73 18.4-2.09 27.17C195.19 77.69 185 83 172.65 81.87c-12.53-1.12-21.11-10-23.9-22.38a34.82 34.82 0 0 1-.71-4.06c-.21-2.06-.3-4.14-.44-6.22zm47.69-.09v-2.49c-.24-5.87-1.42-11.47-4.76-16.43-5-7.47-14.25-10.16-22.07-6.38-5.41 2.61-8.72 7.09-10.71 12.6-2.23 6.17-2.33 12.55-1.58 19 .65 5.57 2.43 10.73 6.2 15 4.46 5 10.09 7.15 16.72 5.81 5.53-1.11 9.35-4.68 12.15-9.43 3.22-5.48 4.1-11.48 4.05-17.68zM74.27 50.25c.11-8.87 1.56-16.27 6.2-22.71C85.61 20.42 92.7 17 101.4 16.75c7.35-.21 13.91 1.79 19.3 7a29.07 29.07 0 0 1 8.35 15.47c1.89 9.08 1.62 18.07-2.08 26.7-5 11.64-15.16 17.09-27.61 16S78.44 72.08 75.52 60a34.77 34.77 0 0 1-.75-4c-.26-2.29-.4-4.57-.5-5.75zm47.81-1.12c-.11-1.78-.17-3.57-.34-5.35a28.09 28.09 0 0 0-5.28-14.59 17.34 17.34 0 0 0-22.23-4.93c-4.81 2.63-7.79 6.81-9.7 11.8-2.19 5.72-2.36 11.7-1.89 17.72a29.82 29.82 0 0 0 4.48 14.12c4.22 6.55 11.26 9.81 18.5 8.32 5.82-1.19 9.75-4.94 12.58-10 2.98-5.3 3.8-11.1 3.88-17.09zM164 125v-16.4a8.77 8.77 0 0 1 .93-.08c3.87 0 7.76-.11 11.6.24a7.41 7.41 0 0 1 7 7.86c-.18 4.74-3 8.06-7.46 8.32-3.78.23-7.58.12-11.36.15a5 5 0 0 1-.71-.09zm-50.74 9.69a4 4 0 0 1-.55.06H98.9l7.14-23.55 7.22 23.49z" fill="#fff"/><path d="M27.69 159v-24.95a1.43 1.43 0 0 1 .44-.15l18.1.14a14.81 14.81 0 0 1 5.27 1.35c5.38 2.35 7.9 7.37 6.88 13.28a11.57 11.57 0 0 1-11.09 10c-5.1.32-10.23.2-15.35.26zm4.36-4.48h14a9.29 9.29 0 0 0 3.14-.74 7.44 7.44 0 0 0 5-7.33 6.78 6.78 0 0 0-4.53-6.93 15.4 15.4 0 0 0-4.93-1.15c-4-.16-8-.05-12 0a5.36 5.36 0 0 0-.7.1zM27.7 107c5.65 0 11.15-.24 16.63.07 6.51.36 11 5.86 10.53 12.36S50.53 129.72 44 129.92c-5.29.17-10.58 0-15.87 0a2.08 2.08 0 0 1-.43-.1zm4.3 18.54h11a10.62 10.62 0 0 0 1.49-.07 6.41 6.41 0 0 0 5.48-4 7.23 7.23 0 0 0-5.33-10 28.31 28.31 0 0 0-5-.25h-7.63v.87zm163.29-76.42c.05 6.2-.83 12.2-4 17.64-2.8 4.75-6.62 8.32-12.15 9.43-6.63 1.34-12.26-.78-16.72-5.81-3.77-4.25-5.55-9.41-6.2-15-.75-6.43-.65-12.81 1.58-19 2-5.51 5.3-10 10.71-12.6 7.82-3.78 17-1.09 22.07 6.38 3.34 5 4.52 10.56 4.76 16.43l-.05 2.53zm-35.18.05c.13 1.87.19 3.75.41 5.6A23.8 23.8 0 0 0 165.2 67c5 6.29 13.41 7 19.23 1.61a18.2 18.2 0 0 0 4.57-7.25c2.17-5.88 2.35-12 1.59-18.09-.54-4.41-1.83-8.54-4.82-12-3.22-3.71-7.25-5.39-12.14-4.55s-8.12 3.94-10.4 8.17c-2.39 4.48-3.07 9.31-3.12 14.28zm-38.03-.04c-.08 6-.9 11.79-3.88 17.1-2.83 5-6.76 8.8-12.58 10-7.24 1.49-14.28-1.77-18.5-8.32a29.82 29.82 0 0 1-4.48-14.12c-.47-6-.3-12 1.89-17.72 1.91-5 4.89-9.17 9.7-11.8a17.34 17.34 0 0 1 22.23 4.93 28.09 28.09 0 0 1 5.28 14.59c.17 1.77.26 3.56.34 5.34zm-4.45.38a37.06 37.06 0 0 0-1.44-11.24c-1.43-4.52-3.86-8.33-8.25-10.49-5.89-2.89-12.72-.79-16.76 5a25.7 25.7 0 0 0-4.26 13.62c-.35 6.19.17 12.25 3.15 17.83 2.17 4 5.34 6.94 10 7.72 5.74 1 10.06-1.44 13.23-6.08 3.46-5.03 4.29-10.8 4.33-16.36z"/><path d="M32.05 154.48v-16.12a5.36 5.36 0 0 1 .7-.1c4 0 8-.12 12 0a15.4 15.4 0 0 1 4.93 1.15 6.78 6.78 0 0 1 4.53 6.93 7.44 7.44 0 0 1-5 7.33 9.29 9.29 0 0 1-3.14.74c-4.65.12-9.27.07-14.02.07zM32 125.54v-13.42-.87h7.63a28.31 28.31 0 0 1 5 .25 7.23 7.23 0 0 1 5.33 10 6.41 6.41 0 0 1-5.48 4 10.62 10.62 0 0 1-1.49.07zm128.11-76.37c0-5 .73-9.8 3.12-14.25 2.28-4.23 5.5-7.34 10.4-8.17s8.92.84 12.14 4.55c3 3.43 4.28 7.56 4.82 12 .76 6.14.58 12.21-1.59 18.09a18.2 18.2 0 0 1-4.57 7.21c-5.82 5.4-14.28 4.65-19.23-1.6a23.8 23.8 0 0 1-4.68-12.19c-.22-1.89-.28-3.81-.41-5.64zm-42.48.34c0 5.56-.87 11.33-4.32 16.38-3.17 4.64-7.49 7-13.23 6.08-4.67-.78-7.84-3.68-10-7.72-3-5.58-3.5-11.64-3.15-17.83a25.7 25.7 0 0 1 4.25-13.62c4-5.81 10.87-7.91 16.76-5 4.39 2.16 6.82 6 8.25 10.49a37.06 37.06 0 0 1 1.44 11.22z" fill="#fff"/></svg>