<svg viewBox="0 0 1792 200" xmlns="http://www.w3.org/2000/svg" xmlns:xlink="http://www.w3.org/1999/xlink"><path fill="rgba(47, 73, 94, 1)" d="M 0 79 C 106 79 106 144 212 144 L 212 144 L 212 0 L 0 0 Z" stroke-width="0"></path> <path fill="rgba(47, 73, 94, 1)" d="M 211 144 C 402.5 144 402.5 103 594 103 L 594 103 L 594 0 L 211 0 Z" stroke-width="0"></path> <path fill="rgba(47, 73, 94, 1)" d="M 593 103 C 739 103 739 168 885 168 L 885 168 L 885 0 L 593 0 Z" stroke-width="0"></path><path fill="rgba(47, 73, 94, 1)" d="M 884 168 C 1031 168 1031 124 1178 124 L 1178 124 L 1178 0 L 884 0 Z" stroke-width="0"></path><path fill="rgba(47, 73, 94, 1)" d="M 1177 124 C 1293.5 124 1293.5 171 1410 171 L 1410 171 L 1410 0 L 1177 0 Z" stroke-width="0"></path><path fill="rgba(47, 73, 94, 1)" d="M 1409 171 C 1524.5 171 1524.5 128 1640 128 L 1640 128 L 1640 0 L 1409 0 Z" stroke-width="0"></path><path fill="rgba(47, 73, 94, 1)" d="M 1639 128 C 1715.5 128 1715.5 101 1792 101 L 1792 101 L 1792 0 L 1639 0 Z" stroke-width="0"></path></svg>