<?xml version="1.0" standalone="no"?>
<!DOCTYPE svg PUBLIC "-//W3C//DTD SVG 20010904//EN"
 "http://www.w3.org/TR/2001/REC-SVG-20010904/DTD/svg10.dtd">
<svg version="1.0" xmlns="http://www.w3.org/2000/svg"
 width="800.000000pt" height="800.000000pt" viewBox="0 0 800.000000 800.000000"
 preserveAspectRatio="xMidYMid meet">
<metadata>
Created by potrace 1.14, written by Peter Selinger 2001-2017
</metadata>
<g transform="translate(0.000000,800.000000) scale(0.100000,-0.100000)"
fill="#000000" stroke="none">
<path d="M17 7273 c-4 -3 -7 -1479 -7 -3280 l0 -3273 3985 0 3985 0 -2 3277
-3 3278 -3976 3 c-2187 1 -3979 -1 -3982 -5z m7803 -3278 l0 -3125 -3813 0
c-2952 0 -3816 3 -3825 12 -9 9 -12 717 -12 3125 l0 3113 3825 0 3825 0 0
-3125z"/>
<path d="M3515 6824 c-317 -48 -572 -211 -747 -474 -125 -189 -189 -370 -223
-629 -20 -144 -19 -239 4 -422 42 -336 105 -509 255 -710 171 -227 402 -365
694 -415 131 -23 414 -15 522 14 104 28 143 43 236 90 224 112 408 316 505
557 156 390 167 823 33 1233 -178 545 -689 847 -1279 756z m444 -178 c378 -95
647 -401 724 -826 39 -210 45 -350 22 -522 -81 -616 -448 -978 -992 -978 -609
0 -1006 467 -1004 1180 1 629 302 1059 808 1155 100 19 350 13 442 -9z"/>
<path d="M3552 6461 c-185 -53 -348 -196 -446 -389 -44 -86 -85 -222 -102
-338 -21 -143 -14 -426 14 -559 74 -341 272 -578 544 -651 63 -17 206 -18 280
-3 224 46 430 255 524 531 49 146 59 218 58 453 0 254 -13 344 -73 495 -96
244 -254 402 -461 459 -96 27 -247 27 -338 2z m244 -152 c246 -45 411 -268
455 -615 17 -135 6 -393 -20 -501 -56 -228 -175 -399 -328 -475 -59 -29 -78
-33 -167 -36 -115 -4 -193 15 -279 70 -125 80 -227 254 -275 468 -13 58 -17
123 -16 290 0 188 3 225 22 292 65 237 171 387 325 463 106 52 178 63 283 44z"/>
<path d="M6175 6825 c-229 -37 -384 -102 -537 -224 -311 -247 -490 -732 -449
-1217 23 -268 63 -439 142 -596 128 -257 348 -464 590 -555 155 -58 220 -68
449 -68 178 0 217 3 292 22 326 83 560 271 713 573 123 243 182 566 155 852
-39 434 -147 695 -377 919 -170 166 -341 254 -568 293 -107 19 -297 19 -410 1z
m378 -171 c348 -60 620 -305 740 -665 68 -204 92 -557 53 -768 -35 -193 -116
-393 -210 -524 -62 -88 -182 -198 -271 -251 -231 -134 -568 -163 -840 -72
-276 93 -493 325 -594 634 -79 241 -97 560 -45 816 79 394 318 687 647 796
150 49 358 63 520 34z"/>
<path d="M6272 6479 c-130 -23 -238 -79 -344 -178 -234 -218 -332 -608 -268
-1056 53 -365 268 -647 546 -719 78 -20 219 -20 303 -1 294 70 511 368 560
770 24 193 12 433 -30 597 -71 284 -261 502 -497 572 -67 19 -202 27 -270 15z
m254 -190 c170 -64 307 -244 355 -469 27 -124 37 -398 19 -519 -57 -389 -258
-622 -539 -623 -275 -1 -487 236 -536 602 -66 481 72 865 358 995 102 47 239
52 343 14z"/>
<path d="M575 6758 c-3 -7 -4 -580 -3 -1273 l3 -1260 80 0 80 0 3 1187 2 1188
768 2 767 3 3 60 c2 32 1 69 -3 82 l-5 23 -846 0 c-666 0 -846 -3 -849 -12z"/>
<path d="M1017 6423 c-4 -3 -7 -205 -7 -448 0 -361 2 -445 14 -454 9 -8 164
-10 557 -9 l544 3 3 88 3 87 -471 0 -470 0 0 285 0 285 543 2 542 3 0 80 0 80
-626 3 c-344 1 -629 -1 -632 -5z"/>
<path d="M1015 5338 c-3 -13 -4 -268 -3 -568 l3 -545 83 -3 82 -3 0 485 0 486
478 2 477 3 3 60 c2 32 1 69 -3 82 l-5 23 -555 0 -555 0 -5 -22z"/>
<path d="M3478 3848 c-16 -13 -857 -2523 -848 -2531 3 -3 33 -8 67 -12 60 -7
64 -6 91 22 24 24 87 204 412 1178 210 633 390 1158 398 1168 14 15 39 17 257
17 218 0 243 -2 257 -17 9 -10 52 -128 96 -263 333 -1014 677 -2050 688 -2072
14 -27 17 -28 99 -28 49 0 85 4 85 10 0 16 -821 2483 -836 2513 l-15 27 -367
0 c-279 0 -372 -3 -384 -12z"/>
<path d="M5350 2585 l0 -1276 83 3 82 3 3 1188 2 1188 528 -3 c513 -4 529 -5
602 -27 262 -79 402 -244 429 -504 9 -92 0 -213 -20 -276 -51 -158 -160 -260
-381 -357 -49 -21 -88 -44 -88 -50 0 -17 620 -1138 638 -1151 10 -8 49 -13
105 -13 81 0 89 2 82 18 -3 9 -137 252 -297 540 -160 288 -289 524 -287 526 2
1 34 17 70 35 251 124 360 351 347 719 -5 112 -10 150 -31 210 -80 231 -272
401 -532 474 -78 22 -93 22 -707 26 l-628 3 0 -1276z"/>
<path d="M582 3738 c-9 -12 -12 -277 -10 -1274 l3 -1259 630 -3 c675 -3 726 0
875 49 241 78 417 259 477 489 22 87 22 281 -1 370 -9 36 -35 103 -58 150 -53
110 -163 224 -259 270 -35 16 -70 30 -76 30 -27 0 -11 18 37 40 67 31 114 78
149 148 116 233 118 477 5 664 -54 88 -170 190 -278 243 -170 84 -164 84 -864
91 -545 6 -618 5 -630 -8z m1279 -185 c230 -64 370 -198 400 -382 16 -104 -12
-265 -67 -373 -50 -98 -156 -180 -268 -209 -53 -13 -61 -21 -46 -48 6 -13 29
-23 64 -31 194 -40 379 -220 440 -428 81 -278 -53 -551 -325 -657 -131 -52
-177 -55 -770 -55 l-549 0 0 1106 0 1105 523 -3 c494 -4 526 -5 598 -25z"/>
<path d="M1010 3000 l0 -420 320 0 c337 0 391 5 472 46 69 35 111 76 145 141
45 87 56 139 51 250 -3 84 -8 107 -35 166 -57 120 -164 201 -297 226 -35 6
-185 11 -358 11 l-298 0 0 -420z m668 230 c105 -45 172 -160 157 -270 -11 -76
-60 -149 -124 -182 l-53 -28 -239 0 -239 0 0 257 0 256 223 -5 c201 -5 228 -8
275 -28z"/>
<path d="M1023 2443 c-10 -4 -13 -105 -13 -460 l0 -456 378 6 c279 4 390 9
427 20 158 44 265 154 305 312 24 94 25 161 5 240 -33 124 -107 216 -224 274
-106 54 -145 59 -521 64 -190 3 -351 3 -357 0z m752 -194 c90 -30 164 -99 184
-172 33 -117 -11 -252 -103 -314 -84 -58 -120 -63 -413 -63 l-263 0 0 283 c0
156 3 287 8 291 4 4 122 6 262 3 235 -4 260 -6 325 -28z"/>
<path d="M5780 3055 l0 -465 293 0 c326 0 393 7 487 52 224 108 317 402 200
643 -52 108 -179 201 -304 224 -35 6 -189 11 -368 11 l-308 0 0 -465z m708
266 c60 -27 106 -75 135 -140 25 -58 21 -184 -10 -252 -25 -55 -76 -109 -128
-133 -47 -23 -183 -35 -382 -36 l-153 0 0 296 0 296 243 -4 c228 -3 245 -5
295 -27z"/>
<path d="M3758 3438 c-15 -12 -83 -210 -332 -974 -36 -110 -66 -203 -66 -207
0 -4 221 -7 491 -7 389 0 490 3 486 13 -7 18 -356 1086 -369 1127 -17 57 -23
60 -112 60 -50 0 -88 -5 -98 -12z m222 -622 c66 -214 117 -393 114 -397 -8
-13 -494 -11 -494 1 0 6 42 149 94 318 51 169 106 351 122 405 21 70 31 92 37
80 4 -10 61 -193 127 -407z"/>
<path d="M5775 2438 c-3 -7 -4 -263 -3 -568 l3 -555 83 -3 82 -3 0 491 0 490
149 0 c128 0 152 -2 168 -17 11 -10 38 -58 60 -108 169 -375 378 -823 391
-837 12 -15 32 -18 99 -18 82 0 84 1 77 22 -3 12 -74 168 -156 347 -83 179
-193 421 -246 536 -52 116 -99 216 -105 223 -7 9 -80 12 -304 12 -226 0 -295
-3 -298 -12z"/>
<path d="M3295 2036 c-14 -32 -245 -715 -245 -722 0 -2 38 -4 85 -4 70 0 86 3
94 18 5 9 50 139 100 287 52 153 99 275 108 283 13 9 109 12 427 10 l410 -3
92 -280 c51 -154 97 -288 103 -297 9 -15 26 -18 91 -18 58 0 80 4 80 13 0 6
-54 176 -118 377 l-118 365 -548 3 -547 2 -14 -34z"/>
</g>
</svg>
